name rise34.3697peak60.0498fall86.3158.mot
datacolumns 19
datarows 17
range 19.72326000000000 19.74992100000000
endheader
time	ground_force1_vx	ground_force1_vy	ground_force1_vz	ground_force1_px	ground_force1_py	ground_force1_pz	ground_force2_vx	ground_force2_vy	ground_force2_vz	ground_force2_px	ground_force2_py	ground_force2_pz	ground_torque1_x	ground_torque1_y	ground_torque1_z	ground_torque2_x	ground_torque2_y	ground_torque2_z	
19.72326000000000	-33.43600600000000	802.61930500000005	68.71545700000000	0.19896400000000	0.00000000000000	0.11084500000000	-9.78603400000000	48.70936100000000	4.84705000000000	0.41679200000000	0.00000000000000	-0.08440800000000	0.00000000000000	34.14486800000000	0.00000000000000	0.00000000000000	2.80630700000000	0.00000000000000	
19.72492400000000	-33.60189800000000	799.15888199999995	68.45640700000000	0.19801000000000	0.00000000000000	0.11074300000000	-10.57289600000000	55.72851500000000	5.30949300000000	0.41732900000000	0.00000000000000	-0.08518300000000	0.00000000000000	33.90675100000000	0.00000000000000	0.00000000000000	3.09571000000000	0.00000000000000	
19.72658800000000	-33.77509300000000	795.56570799999997	68.16122700000000	0.19705400000000	0.00000000000000	0.11063700000000	-11.19033600000000	62.68848000000000	5.70383700000000	0.41797000000000	0.00000000000000	-0.08589000000000	0.00000000000000	33.65894200000000	0.00000000000000	0.00000000000000	3.35327700000000	0.00000000000000	
19.72826000000000	-33.95605600000000	791.84161500000005	67.82985800000000	0.19609800000000	0.00000000000000	0.11052600000000	-11.62403500000000	69.51872899999999	6.02196900000000	0.41870200000000	0.00000000000000	-0.08653900000000	0.00000000000000	33.40176200000000	0.00000000000000	0.00000000000000	3.57457300000000	0.00000000000000	
19.72992700000000	-34.14522600000000	787.98846000000003	67.46232900000000	0.19514300000000	0.00000000000000	0.11040900000000	-11.86882500000000	76.17503900000000	6.25978000000000	0.41951200000000	0.00000000000000	-0.08713800000000	0.00000000000000	33.13555500000000	0.00000000000000	0.00000000000000	3.75718900000000	0.00000000000000	
19.73158800000000	-34.34301800000000	784.00812399999995	67.05875100000000	0.19418900000000	0.00000000000000	0.11028800000000	-11.92786700000000	82.63899000000001	6.41687200000000	0.42039100000000	0.00000000000000	-0.08769400000000	0.00000000000000	32.86068400000000	0.00000000000000	0.00000000000000	3.90061100000000	0.00000000000000	
19.73325400000000	-34.54981300000000	779.90249600000004	66.61932100000000	0.19323700000000	0.00000000000000	0.11016200000000	-11.81129100000000	88.91543200000000	6.49602000000000	0.42133100000000	0.00000000000000	-0.08821200000000	0.00000000000000	32.57752600000000	0.00000000000000	0.00000000000000	4.00595500000000	0.00000000000000	
19.73492200000000	-34.76596300000000	775.67346799999996	66.14432300000000	0.19228900000000	0.00000000000000	0.11003000000000	-11.53449500000000	95.02846400000000	6.50245700000000	0.42232400000000	0.00000000000000	-0.08869500000000	0.00000000000000	32.28647900000000	0.00000000000000	0.00000000000000	4.07560900000000	0.00000000000000	
19.73659500000000	-34.99178100000000	771.32292500000005	65.63412300000000	0.19134400000000	0.00000000000000	0.10989200000000	-11.11630200000000	101.01652900000001	6.44309400000000	0.42336600000000	0.00000000000000	-0.08914900000000	0.00000000000000	31.98794900000000	0.00000000000000	0.00000000000000	4.11283300000000	0.00000000000000	
19.73825500000000	-35.22754500000000	766.85273800000004	65.08917099999999	0.19040500000000	0.00000000000000	0.10975000000000	-10.57716000000000	106.92718300000000	6.32572800000000	0.42445000000000	0.00000000000000	-0.08957700000000	0.00000000000000	31.68235900000000	0.00000000000000	0.00000000000000	4.12136400000000	0.00000000000000	
19.73993000000000	-35.47349000000000	762.26475300000004	64.51000100000000	0.18947100000000	0.00000000000000	0.10960200000000	-9.93751700000000	112.81201500000000	6.15832100000000	0.42557200000000	0.00000000000000	-0.08998100000000	0.00000000000000	31.37014000000000	0.00000000000000	0.00000000000000	4.10503400000000	0.00000000000000	
19.74159200000000	-35.72980900000000	757.56079199999999	63.89722400000000	0.18854400000000	0.00000000000000	0.10944800000000	-9.21647100000000	118.72210699999999	5.94839600000000	0.42672800000000	0.00000000000000	-0.09036400000000	0.00000000000000	31.05173300000000	0.00000000000000	0.00000000000000	4.06745800000000	0.00000000000000	
19.74325900000000	-35.99664800000000	752.74263800000006	63.25153100000000	0.18762500000000	0.00000000000000	0.10928800000000	-8.43075800000000	124.70428600000000	5.70255900000000	0.42791400000000	0.00000000000000	-0.09072800000000	0.00000000000000	30.72758300000000	0.00000000000000	0.00000000000000	4.01178100000000	0.00000000000000	
19.74492200000000	-36.27410200000000	747.81203600000003	62.57369200000000	0.18671600000000	0.00000000000000	0.10912300000000	-7.59409200000000	130.79832700000000	5.42618400000000	0.42912700000000	0.00000000000000	-0.09107400000000	0.00000000000000	30.39814100000000	0.00000000000000	0.00000000000000	3.94051000000000	0.00000000000000	
19.74659500000000	-36.56221700000000	742.77068399999996	61.86454600000000	0.18581600000000	0.00000000000000	0.10895200000000	-6.71685100000000	137.03514999999999	5.12325100000000	0.43036500000000	0.00000000000000	-0.09140500000000	0.00000000000000	30.06386200000000	0.00000000000000	0.00000000000000	3.85541800000000	0.00000000000000	
19.74826000000000	-36.86098300000000	737.62023099999999	61.12500600000000	0.18492700000000	0.00000000000000	0.10877500000000	-5.80606300000000	143.43596800000000	4.79630800000000	0.43162400000000	0.00000000000000	-0.09172100000000	0.00000000000000	29.72519700000000	0.00000000000000	0.00000000000000	3.75752000000000	0.00000000000000	
19.74992100000000	-37.17033400000000	732.36226999999997	60.35605400000000	0.18405100000000	0.00000000000000	0.10859200000000	-4.86564800000000	150.01228399999999	4.44655700000000	0.43290200000000	0.00000000000000	-0.09202400000000	0.00000000000000	29.38259900000000	0.00000000000000	0.00000000000000	3.64711100000000	0.00000000000000	
